<svg id="svg" xmlns="http://www.w3.org/2000/svg" xmlns:xlink="http://www.w3.org/1999/xlink" viewBox="0, 0, 400,64.67661691542288"><g id="svgg"><path id="path0" d="M0.000 14.428 C 0.000 31.091,-0.325 30.747,7.740 22.610 L 13.930 16.364 13.930 8.182 L 13.930 0.000 6.965 0.000 L 0.000 0.000 0.000 14.428 M20.638 20.655 L 0.000 41.311 0.000 52.994 L 0.000 64.677 6.965 64.677 L 13.930 64.677 13.930 56.903 C 13.930 49.595,14.106 48.960,16.862 46.320 L 19.793 43.512 31.041 54.083 L 42.289 64.654 52.725 64.665 L 63.161 64.677 47.046 48.507 L 30.931 32.338 46.795 16.169 L 62.659 0.000 51.967 0.000 L 41.276 0.000 20.638 20.655 M81.821 1.876 C 47.138 13.857,57.943 66.496,94.665 64.447 C 113.517 63.396,124.876 51.324,124.876 32.338 C 124.876 8.882,104.098 -5.819,81.821 1.876 M134.328 6.898 L 134.328 13.796 150.575 14.112 C 169.151 14.473,173.044 15.901,177.095 23.842 C 184.240 37.848,174.161 50.746,156.070 50.746 L 149.254 50.746 149.254 36.816 L 149.254 22.886 141.791 22.886 L 134.328 22.886 134.328 43.859 L 134.328 64.832 152.985 64.505 C 170.184 64.204,171.976 64.000,175.915 61.897 C 196.333 50.996,200.246 24.855,183.880 8.690 C 176.054 0.961,172.435 -0.011,151.493 -0.005 L 134.328 0.000 134.328 6.898 M202.985 6.965 L 202.985 13.930 232.338 13.930 L 261.692 13.930 261.692 6.965 L 261.692 0.000 232.338 0.000 L 202.985 0.000 202.985 6.965 M270.647 6.965 L 270.647 13.930 289.726 13.930 L 308.805 13.930 306.392 16.512 C 301.755 21.477,298.960 22.260,284.328 22.700 L 270.647 23.111 270.647 43.894 L 270.647 64.677 278.109 64.677 L 285.572 64.677 285.572 50.703 L 285.572 36.729 292.774 37.021 L 299.975 37.313 308.329 50.995 L 316.682 64.677 325.114 64.677 C 331.558 64.677,333.431 64.376,333.057 63.403 C 332.789 62.702,328.243 55.055,322.956 46.409 L 313.343 30.689 316.827 26.832 C 321.607 21.542,324.458 15.601,325.341 9.093 C 326.676 -0.746,328.929 0.000,297.894 0.000 L 270.647 0.000 270.647 6.965 M339.303 6.941 L 339.303 13.882 355.753 14.155 L 372.203 14.428 362.719 27.510 C 351.305 43.252,351.375 41.791,362.034 41.791 L 370.834 41.791 384.953 22.381 C 392.719 11.706,399.329 2.303,399.643 1.486 C 400.141 0.188,396.358 -0.000,369.758 -0.000 L 339.303 0.000 339.303 6.941 M101.479 16.420 C 109.821 20.762,113.419 30.948,109.562 39.303 C 103.374 52.710,86.194 54.200,78.000 42.040 C 67.825 26.942,85.223 7.958,101.479 16.420 M202.985 43.781 L 202.985 64.677 232.338 64.677 L 261.692 64.677 261.692 57.711 L 261.692 50.746 239.801 50.746 L 217.910 50.746 217.910 43.781 L 217.910 36.816 236.816 36.816 L 255.721 36.816 255.721 29.851 L 255.721 22.886 229.353 22.886 L 202.985 22.886 202.985 43.781 M342.457 55.138 C 340.723 57.553,339.303 60.694,339.303 62.118 L 339.303 64.706 368.905 64.443 L 398.507 64.179 398.782 57.463 L 399.057 50.746 372.334 50.746 L 345.611 50.746 342.457 55.138 " stroke="none" fill="#000000" fill-rule="evenodd"></path></g></svg>