<svg viewBox="0 0 36 71" fill="none" xmlns="http://www.w3.org/2000/svg">
<path d="M0.956527 3.0849C0.3614 2.5086 0.346132 1.55898 0.922426 0.963851C1.49872 0.368724 2.44835 0.353456 3.04347 0.92975L0.956527 3.0849ZM25.5163 70.4156C24.9314 71.0023 23.9817 71.0037 23.395 70.4187L13.8352 60.8867C13.2485 60.3018 13.2471 59.352 13.8321 58.7654C14.417 58.1788 15.3667 58.1774 15.9534 58.7623L24.451 67.2352L32.9239 58.7376C33.5089 58.1509 34.4586 58.1495 35.0453 58.7345C35.6319 59.3194 35.6333 60.2691 35.0483 60.8558L25.5163 70.4156ZM3.04347 0.92975C18.1499 15.5582 25.9157 42.9737 25.9541 69.3543L22.9541 69.3587C22.9162 43.3484 15.226 16.9028 0.956527 3.0849L3.04347 0.92975Z" fill="url(#paint0_linear_126_252)"/>
<defs>
<linearGradient id="paint0_linear_126_252" x1="2.04024" y1="2.12802" x2="49.9809" y2="46.7722" gradientUnits="userSpaceOnUse">
<stop stop-color="#386FF3"/>
<stop offset="1" stop-color="#3CE1CD"/>
</linearGradient>
</defs>
</svg>
