<svg width="204" height="35" viewBox="0 0 204 35" fill="none" xmlns="http://www.w3.org/2000/svg">
<path d="M2.77286 1.99054C2.13425 1.46284 1.18876 1.55276 0.661069 2.19137C0.133373 2.82999 0.22329 3.77547 0.861905 4.30316L2.77286 1.99054ZM203.525 7.36208C203.797 6.57955 203.383 5.72475 202.6 5.45282L189.848 1.02148C189.066 0.749553 188.211 1.16347 187.939 1.946C187.667 2.72852 188.081 3.58333 188.864 3.85526L200.199 7.79422L196.26 19.1293C195.988 19.9119 196.402 20.7667 197.184 21.0386C197.967 21.3105 198.822 20.8966 199.094 20.1141L203.525 7.36208ZM0.861905 4.30316C51.929 46.5006 131.707 42.6265 202.762 8.21976L201.454 5.51966C130.898 39.685 52.539 43.113 2.77286 1.99054L0.861905 4.30316Z" fill="url(#paint0_linear_106_411)"/>
<defs>
<linearGradient id="paint0_linear_106_411" x1="2.17633" y1="3.15351" x2="187.702" y2="73.2118" gradientUnits="userSpaceOnUse">
<stop stop-color="#386FF3"/>
<stop offset="1" stop-color="#3CE1CD"/>
</linearGradient>
</defs>
</svg>
