<svg viewBox="0 0 663 924" fill="none" xmlns="http://www.w3.org/2000/svg">
<g opacity="0.05">
<path fill-rule="evenodd" clip-rule="evenodd" d="M405.527 725.283L465.111 756.103L465.103 755.793C471.039 758.85 473.313 766.087 470.218 771.951C467.124 777.816 459.798 780.093 453.862 777.036L393.804 745.967L364.69 729.995C350.418 721.761 337.882 710.936 327.746 698.053C317.136 684.296 311.453 667.451 311.579 650.138V646.551C281.71 675.843 241.543 692.594 199.452 693.342C158.625 692.688 119.564 676.872 90.0093 649.015V650.138C90.167 667.451 84.4834 684.296 73.8423 698.053C63.7063 710.936 51.1704 721.761 36.8981 729.995L8.85798 745.967L-51.8631 777.442C-57.7988 780.498 -65.1248 778.222 -68.2193 772.357C-71.3135 766.493 -69.0402 759.256 -63.0723 756.199L-3.01414 725.13L24.4569 709.158C36.1085 702.421 46.3714 693.53 54.6125 682.955C61.9702 673.566 65.9804 662.024 66.0119 650.139V623.374C49.4342 602.474 36.1724 579.172 26.7308 554.31C-14.2551 531.538 -38.5057 500.813 -38.5057 466.468V290.782C-38.8209 279.427 -34.3055 268.447 -26.0643 260.523C-13.4653 248.202 7.72241 241.682 35.8571 238.313C69.7756 180.668 132.168 145.2 199.678 145.2C267.159 145.2 329.554 180.666 363.499 238.313H363.467C393.875 241.589 416.515 248.14 429.683 261.085C437.766 268.884 442.218 279.616 441.965 290.783V466.716C441.965 502.463 415.283 534.344 371.645 557.178C362.804 579.669 350.868 600.85 336.154 620.097V650.137C336.217 662.115 340.322 673.719 347.805 683.109C355.952 693.652 366.025 702.542 377.55 709.311L405.527 725.283ZM417.715 290.778C417.873 286.036 415.947 281.482 412.474 278.238C402.212 270.47 389.927 265.698 377.076 264.512C384.465 281.856 389.391 300.136 391.696 318.821C408.653 309.463 417.715 299.575 417.715 290.778ZM199.715 169.465C252.226 169.777 301.487 194.514 332.681 236.252C338.775 244.113 344.175 252.473 348.848 261.239C357.405 277.616 363.373 295.209 366.468 313.364C367.383 318.698 368.047 324.001 368.489 329.335C362.71 331.519 356.458 333.609 349.732 335.574C301.579 348.644 251.784 354.884 201.828 354.103C150.612 354.977 99.5876 348.395 50.3266 334.545C43.4745 332.424 37.1593 330.209 31.3174 327.932C31.7279 323.065 32.4541 318.199 33.2435 313.395L33.2751 313.364C36.3695 295.272 42.306 277.741 50.8317 261.395C55.4734 252.566 60.8731 244.144 66.9988 236.252C98.1333 194.577 147.298 169.84 199.715 169.465ZM22.1947 265.233C10.8268 266.574 0.0280151 271.004 -9.00291 277.991C-12.5079 281.33 -14.403 285.977 -14.2451 290.781C-14.2451 298.766 -6.4768 308.125 8.3007 316.828C10.6061 299.079 15.2794 281.734 22.1947 265.233ZM15.2482 517.562C-3.41342 502.401 -14.2437 484.995 -14.2437 466.528V330.707C-7.83374 335.417 -0.981895 339.535 6.18577 342.998C10.4801 345.088 14.9006 347.084 19.7006 348.987C24.4686 350.89 26.9 351.795 30.6894 353.136C32.8626 353.923 35.2021 354.669 37.5051 355.404C39.2175 355.95 40.9098 356.49 42.4986 357.035V357.066C94.2833 371.572 147.9 378.621 201.736 378.06C254.279 378.559 306.66 371.884 357.344 358.189C360.133 357.383 362.873 356.496 365.576 355.621C366.637 355.278 367.694 354.936 368.743 354.602C372.469 353.416 376.827 351.888 380.237 350.453C381.15 350.069 382.213 349.633 383.359 349.163C386.497 347.877 390.266 346.331 393.341 344.869L393.31 344.838C401.867 340.908 409.982 336.166 417.56 330.614V466.467C417.56 486.525 404.804 505.366 383.048 521.4C373.449 528.356 363.187 534.377 352.419 539.368C304.896 559.987 253.46 570.25 201.58 569.408C148.2 569.408 78.8999 554.4 45.972 536.966C37.0914 532.263 19.4999 521.4 15.2482 517.562ZM90.1111 614.919C119.702 648.764 157.908 669.29 199.716 669.29C257.218 669.29 303.902 622.221 314.176 609.647C322.951 598.908 331.864 585.085 338.837 571.403C294.822 586.501 248.501 593.956 201.894 593.426C153.514 594.018 105.394 585.908 59.9555 569.469C66.2081 581.884 73.5965 593.707 82.0276 604.781C82.3476 605.201 82.6493 605.598 82.9354 605.974C85.9619 609.953 87.2479 611.644 90.1111 614.919Z" fill="#3873FF"/>
<path d="M421.833 675.484C402.939 718.642 311.255 751.384 201 751.384C77.0674 751.384 -23.3999 710.015 -23.3999 658.984C-23.3999 631.4 5.95363 606.639 52.5001 589.709" stroke="white" stroke-width="19.8" stroke-linecap="round" stroke-linejoin="round"/>
<path fill-rule="evenodd" clip-rule="evenodd" d="M432 676.5C450.225 676.5 465 661.726 465 643.5C465 625.275 450.225 610.5 432 610.5C413.774 610.5 399 625.275 399 643.5C399 661.726 413.774 676.5 432 676.5Z" stroke="white" stroke-width="19.8"/>
<path d="M83.8691 607.2C83.5762 606.816 83.267 606.409 82.937 605.975L82.0282 604.781C74.6747 595.122 68.1145 584.894 62.4091 574.2H35.0254C41.2275 587.021 48.3524 598.539 54.2052 607.2H83.8691Z" fill="#3873FF"/>
<path d="M36 478.133V392.089C64.2051 402.844 100.872 418.978 199.59 418.978C287.026 418.978 340.615 402.844 366 389.4V478.133C337.795 507.711 274.051 528 199.59 528C125.128 528 55.7436 505.022 36 478.133Z" fill="url(#paint0_linear_106_412)"/>
<rect opacity="0.1" x="478.2" y="112.2" width="68.5143" height="68.5143" fill="#3CE1CD"/>
<rect opacity="0.4" x="478.2" y="201.269" width="68.5143" height="68.5143" fill="#3CE1CD"/>
<rect opacity="0.7" x="478.2" y="290.337" width="68.5143" height="68.5143" fill="#3CE1CD"/>
<rect x="478.2" y="379.406" width="68.5143" height="68.5143" fill="#3CE1CD"/>
</g>
<defs>
<linearGradient id="paint0_linear_106_412" x1="201" y1="389.4" x2="201" y2="528" gradientUnits="userSpaceOnUse">
<stop stop-color="#3873FF"/>
<stop offset="1" stop-color="#3873FF" stop-opacity="0"/>
</linearGradient>
</defs>
</svg>
